<svg width="862" height="1257" xmlns="http://www.w3.org/2000/svg" xmlns:xlink="http://www.w3.org/1999/xlink" xml:space="preserve" overflow="hidden"><defs><clipPath id="clip0"><rect x="1758" y="596" width="862" height="1257"/></clipPath></defs><g clip-path="url(#clip0)" transform="translate(-1758 -596)"><path d="M1941.45 1660.55C2178.99 1752.98 2199.01 1752.98 2436.55 1660.55 2436.55 1660.55 2436.55 1660.55 2620 1756.89 2620 1756.89 2620 1756.89 2436.55 1853 2199.01 1760.8 2178.99 1760.8 1941.45 1853 1941.45 1853 1941.45 1853 1758 1756.89 1758 1756.89 1758 1756.89 1941.45 1660.55ZM1941.45 1422.35C2178.99 1514.92 2199.01 1514.92 2436.55 1422.35 2436.55 1422.35 2436.55 1422.35 2620 1518.83 2620 1518.83 2620 1518.83 2436.55 1615.08 2199.01 1522.74 2178.99 1522.74 1941.45 1615.08 1941.45 1615.08 1941.45 1615.08 1758 1518.83 1758 1518.83 1758 1518.83 1941.45 1422.35ZM1941.45 1184.43C2178.99 1276.99 2199.01 1276.99 2436.55 1184.43 2436.55 1184.43 2436.55 1184.43 2620 1280.91 2620 1280.91 2620 1280.91 2436.55 1377.15 2199.01 1284.82 2178.99 1284.82 1941.45 1377.15 1941.45 1377.15 1941.45 1377.15 1758 1280.91 1758 1280.91 1758 1280.91 1941.45 1184.43ZM1876.55 649.401 1876.55 999.035C1876.55 999.035 1876.55 999.035 1916.83 999.035 1934.78 999.035 1945.37 996.273 1953.66 986.376 1966.32 971.184 1967.47 940.341 1967.47 878.194 1967.47 878.194 1967.47 878.194 1967.47 770.012 1967.47 708.095 1966.32 677.252 1953.66 662.06 1945.37 652.163 1934.78 649.401 1916.83 649.401 1916.83 649.401 1916.83 649.401 1876.55 649.401ZM2079.96 596C2079.96 596 2079.96 596 2294.99 596 2298.44 596 2300.51 596.921 2302.12 598.532 2303.5 599.913 2304.65 601.985 2304.65 605.437 2304.65 605.437 2304.65 605.437 2304.65 644.106 2304.65 647.559 2303.5 649.631 2302.12 651.012 2300.51 652.623 2298.44 653.544 2294.99 653.544 2294.99 653.544 2294.99 653.544 2226.15 653.544 2226.15 653.544 2226.15 653.544 2226.15 1043 2226.15 1046.45 2225.23 1048.52 2223.62 1049.9 2222.24 1051.52 2220.17 1052.44 2216.71 1052.44 2216.71 1052.44 2216.71 1052.44 2158.24 1052.44 2154.78 1052.44 2152.71 1051.52 2151.1 1049.9 2149.49 1048.52 2148.57 1046.45 2148.57 1043 2148.57 1043 2148.57 1043 2148.57 653.544 2148.57 653.544 2148.57 653.544 2079.96 653.544 2076.51 653.544 2074.44 652.623 2072.83 651.012 2071.22 649.631 2070.29 647.559 2070.29 644.106 2070.29 644.106 2070.29 644.106 2070.29 605.437 2070.29 601.985 2071.22 599.913 2072.83 598.532 2074.44 596.921 2076.51 596 2079.96 596ZM1813.48 596C1813.48 596 1813.48 596 1927.88 596 1972.3 596 1999.46 606.128 2016.04 627.304 2040.21 656.306 2040.9 703.261 2040.9 775.076 2040.9 775.076 2040.9 775.076 2040.9 873.36 2040.9 945.174 2040.21 992.13 2016.04 1021.13 1999.46 1042.31 1972.3 1052.44 1927.88 1052.44 1927.88 1052.44 1927.88 1052.44 1813.48 1052.44 1810.02 1052.44 1807.95 1051.52 1806.57 1049.9 1804.96 1048.52 1804.04 1046.45 1804.04 1043 1804.04 1043 1804.04 1043 1804.04 605.437 1804.04 601.985 1804.96 599.913 1806.57 598.532 1807.95 596.921 1810.02 596 1813.48 596ZM2344.88 596C2344.88 596 2344.88 596 2398.3 596 2401.76 596 2403.83 596.921 2405.44 598.532 2407.05 599.914 2407.97 601.986 2407.97 605.439 2407.97 605.439 2407.97 605.439 2407.97 928.421 2407.97 963.413 2411.2 982.751 2421.56 994.261 2429.16 1002.78 2439.29 1006.46 2452.65 1006.46 2467.38 1006.46 2477.98 1002.32 2485.34 994.261 2496.4 982.29 2498.93 962.262 2498.93 928.421 2498.93 928.421 2498.93 928.421 2498.93 605.439 2498.93 601.986 2499.85 599.914 2501.46 598.532 2502.84 596.921 2505.15 596 2508.37 596 2508.37 596 2508.37 596 2562.02 596 2565.48 596 2567.55 596.921 2568.93 598.532 2570.54 599.914 2571.46 601.986 2571.46 605.439 2571.46 605.439 2571.46 605.439 2571.46 928.651 2571.46 972.161 2566.4 1001.17 2545.44 1025.57 2527.71 1046.29 2498.7 1058.26 2453.57 1058.26 2409.13 1058.26 2379.88 1046.98 2360.31 1025.57 2341.66 1005.08 2335.44 975.614 2335.44 928.651 2335.44 928.651 2335.44 928.651 2335.44 605.439 2335.44 601.986 2336.36 599.914 2337.74 598.532 2339.35 596.921 2341.43 596 2344.88 596Z" fill="#990000" fill-rule="evenodd"/></g></svg>